<mxfile host="65bd71144e">
    <diagram id="xEc6FxT3LsrSwKHamJ3u" name="main automata ">
        <mxGraphModel dx="526" dy="919" grid="1" gridSize="10" guides="1" tooltips="1" connect="1" arrows="1" fold="1" page="1" pageScale="1" pageWidth="827" pageHeight="1169" math="0" shadow="0">
            <root>
                <mxCell id="CAGpj0laClkHIxfo-RfI-0"/>
                <mxCell id="CAGpj0laClkHIxfo-RfI-1" parent="CAGpj0laClkHIxfo-RfI-0"/>
                <mxCell id="v2Jw0w8_lKJc6QblX5nT-2" value="" style="edgeStyle=none;html=1;" parent="CAGpj0laClkHIxfo-RfI-1" source="v2Jw0w8_lKJc6QblX5nT-0" target="v2Jw0w8_lKJc6QblX5nT-1" edge="1">
                    <mxGeometry relative="1" as="geometry"/>
                </mxCell>
                <mxCell id="v2Jw0w8_lKJc6QblX5nT-4" value="" style="edgeStyle=none;html=1;" parent="CAGpj0laClkHIxfo-RfI-1" source="v2Jw0w8_lKJc6QblX5nT-0" target="v2Jw0w8_lKJc6QblX5nT-3" edge="1">
                    <mxGeometry relative="1" as="geometry"/>
                </mxCell>
                <mxCell id="v2Jw0w8_lKJc6QblX5nT-0" value="start" style="rounded=0;whiteSpace=wrap;html=1;" parent="CAGpj0laClkHIxfo-RfI-1" vertex="1">
                    <mxGeometry x="260" y="30" width="120" height="60" as="geometry"/>
                </mxCell>
                <mxCell id="v2Jw0w8_lKJc6QblX5nT-6" style="edgeStyle=none;html=1;exitX=0.5;exitY=1;exitDx=0;exitDy=0;entryX=0.25;entryY=0;entryDx=0;entryDy=0;" parent="CAGpj0laClkHIxfo-RfI-1" source="v2Jw0w8_lKJc6QblX5nT-1" target="6xx2wgNng2PTZuW_z59i-4" edge="1">
                    <mxGeometry relative="1" as="geometry">
                        <mxPoint x="260" y="325" as="targetPoint"/>
                    </mxGeometry>
                </mxCell>
                <mxCell id="v2Jw0w8_lKJc6QblX5nT-1" value="saved model" style="rounded=0;whiteSpace=wrap;html=1;" parent="CAGpj0laClkHIxfo-RfI-1" vertex="1">
                    <mxGeometry x="120" y="180" width="120" height="60" as="geometry"/>
                </mxCell>
                <mxCell id="6xx2wgNng2PTZuW_z59i-3" style="edgeStyle=none;html=1;exitX=0.5;exitY=1;exitDx=0;exitDy=0;entryX=0.75;entryY=0;entryDx=0;entryDy=0;" parent="CAGpj0laClkHIxfo-RfI-1" source="v2Jw0w8_lKJc6QblX5nT-3" target="6xx2wgNng2PTZuW_z59i-4" edge="1">
                    <mxGeometry relative="1" as="geometry">
                        <mxPoint x="380" y="325" as="targetPoint"/>
                    </mxGeometry>
                </mxCell>
                <mxCell id="v2Jw0w8_lKJc6QblX5nT-3" value="train model" style="rounded=0;whiteSpace=wrap;html=1;" parent="CAGpj0laClkHIxfo-RfI-1" vertex="1">
                    <mxGeometry x="400" y="180" width="120" height="60" as="geometry"/>
                </mxCell>
                <mxCell id="6xx2wgNng2PTZuW_z59i-0" value="dataset&amp;nbsp;&lt;br&gt;hyperparams&amp;nbsp;" style="shape=note;whiteSpace=wrap;html=1;backgroundOutline=1;darkOpacity=0.05;size=19;" parent="CAGpj0laClkHIxfo-RfI-1" vertex="1">
                    <mxGeometry x="430" y="80" width="50" height="80" as="geometry"/>
                </mxCell>
                <mxCell id="6xx2wgNng2PTZuW_z59i-1" value="model" style="shape=note;whiteSpace=wrap;html=1;backgroundOutline=1;darkOpacity=0.05;size=16;" parent="CAGpj0laClkHIxfo-RfI-1" vertex="1">
                    <mxGeometry x="450" y="390" width="50" height="80" as="geometry"/>
                </mxCell>
                <mxCell id="6xx2wgNng2PTZuW_z59i-2" value="trigger set" style="shape=note;whiteSpace=wrap;html=1;backgroundOutline=1;darkOpacity=0.05;size=16;" parent="CAGpj0laClkHIxfo-RfI-1" vertex="1">
                    <mxGeometry x="510" y="80" width="50" height="80" as="geometry"/>
                </mxCell>
                <mxCell id="6xx2wgNng2PTZuW_z59i-20" style="edgeStyle=none;html=1;exitX=0.5;exitY=1;exitDx=0;exitDy=0;entryX=0.5;entryY=0;entryDx=0;entryDy=0;" parent="CAGpj0laClkHIxfo-RfI-1" source="6xx2wgNng2PTZuW_z59i-4" target="6xx2wgNng2PTZuW_z59i-9" edge="1">
                    <mxGeometry relative="1" as="geometry">
                        <Array as="points">
                            <mxPoint x="320" y="490"/>
                        </Array>
                    </mxGeometry>
                </mxCell>
                <mxCell id="6xx2wgNng2PTZuW_z59i-4" value="Process ( remove WM, add WM, usecases)" style="whiteSpace=wrap;html=1;" parent="CAGpj0laClkHIxfo-RfI-1" vertex="1">
                    <mxGeometry x="260" y="410" width="120" height="60" as="geometry"/>
                </mxCell>
                <mxCell id="6xx2wgNng2PTZuW_z59i-8" value="trigger set" style="shape=note;whiteSpace=wrap;html=1;backgroundOutline=1;darkOpacity=0.05;size=19;" parent="CAGpj0laClkHIxfo-RfI-1" vertex="1">
                    <mxGeometry x="389" y="390" width="50" height="80" as="geometry"/>
                </mxCell>
                <mxCell id="6xx2wgNng2PTZuW_z59i-12" value="" style="edgeStyle=none;html=1;" parent="CAGpj0laClkHIxfo-RfI-1" source="6xx2wgNng2PTZuW_z59i-9" target="6xx2wgNng2PTZuW_z59i-11" edge="1">
                    <mxGeometry relative="1" as="geometry"/>
                </mxCell>
                <mxCell id="6xx2wgNng2PTZuW_z59i-9" value="analysis" style="whiteSpace=wrap;html=1;" parent="CAGpj0laClkHIxfo-RfI-1" vertex="1">
                    <mxGeometry x="260" y="550" width="120" height="60" as="geometry"/>
                </mxCell>
                <mxCell id="6xx2wgNng2PTZuW_z59i-11" value="display results" style="whiteSpace=wrap;html=1;" parent="CAGpj0laClkHIxfo-RfI-1" vertex="1">
                    <mxGeometry x="260" y="730" width="120" height="60" as="geometry"/>
                </mxCell>
                <mxCell id="6xx2wgNng2PTZuW_z59i-15" value="model database&lt;br&gt;retrieve their training data and trigger set type&amp;nbsp;" style="shape=note;whiteSpace=wrap;html=1;backgroundOutline=1;darkOpacity=0.05;" parent="CAGpj0laClkHIxfo-RfI-1" vertex="1">
                    <mxGeometry x="120" y="60" width="90" height="100" as="geometry"/>
                </mxCell>
                <mxCell id="6xx2wgNng2PTZuW_z59i-22" value="analysis&amp;nbsp;&lt;br&gt;queries" style="shape=note;whiteSpace=wrap;html=1;backgroundOutline=1;darkOpacity=0.05;size=16;" parent="CAGpj0laClkHIxfo-RfI-1" vertex="1">
                    <mxGeometry x="410" y="540" width="50" height="80" as="geometry"/>
                </mxCell>
                <mxCell id="_Bg1t6V2xzO7mVa8Ofw8-0" value="results" style="shape=note;whiteSpace=wrap;html=1;backgroundOutline=1;darkOpacity=0.05;size=16;" parent="CAGpj0laClkHIxfo-RfI-1" vertex="1">
                    <mxGeometry x="330" y="640" width="50" height="60" as="geometry"/>
                </mxCell>
            </root>
        </mxGraphModel>
    </diagram>
</mxfile>